<?xml version="1.0" standalone="no"?>
<!DOCTYPE svg PUBLIC "-//W3C//DTD SVG 20010904//EN"
 "http://www.w3.org/TR/2001/REC-SVG-20010904/DTD/svg10.dtd">
<svg version="1.0" xmlns="http://www.w3.org/2000/svg"
 width="50pt" height="50pt" viewBox="0 0 709.000000 709.000000"
 preserveAspectRatio="xMidYMid meet">

<g transform="translate(0.000000,709.000000) scale(0.100000,-0.100000)"
fill="#4481eb" stroke="none">
<path d="M2280 6031 c-61 -20 -177 -70 -720 -309 -587 -258 -564 -247 -580
-276 -28 -48 -9 -61 310 -203 l155 -69 3 -190 c3 -174 1 -195 -20 -264 -57
-187 -4 -631 111 -920 130 -327 309 -539 560 -665 101 -51 178 -69 301 -68
222 0 369 71 561 270 99 103 159 185 222 303 85 160 159 399 187 607 15 106 8
427 -9 483 -6 20 -11 120 -11 241 l0 206 28 13 c15 7 94 41 177 77 253 109
275 122 275 170 0 18 -13 29 -57 52 -55 27 -943 418 -1083 476 -199 82 -310
101 -410 66z m-290 -1493 c151 -65 294 -124 317 -130 24 -6 78 -8 121 -6 72 5
97 14 367 131 160 69 299 127 310 129 19 3 20 -3 23 -112 2 -63 -2 -159 -8
-213 -6 -55 -10 -101 -8 -102 2 -2 25 10 52 26 82 51 91 29 56 -141 -78 -383
-303 -719 -562 -840 -104 -48 -179 -63 -293 -57 -118 6 -187 28 -290 92 -204
127 -341 314 -442 605 -57 161 -98 370 -73 370 5 0 32 -12 59 -27 27 -16 53
-25 56 -21 4 4 2 76 -5 161 -7 85 -9 180 -6 211 7 52 9 56 29 50 12 -4 146
-60 297 -126z"/>
<path d="M5140 5493 c-20 -8 -858 -373 -942 -411 -100 -46 -102 -82 -6 -124
35 -15 48 -26 49 -42 0 -17 2 -18 7 -4 6 15 21 11 124 -35 l118 -52 0 -160 c0
-113 -5 -174 -15 -209 -19 -63 -19 -193 0 -343 73 -564 416 -962 801 -930 145
13 249 66 375 191 163 160 254 337 320 616 19 80 23 123 23 275 0 111 -4 195
-12 220 -7 23 -12 102 -12 188 l0 148 73 33 c39 19 117 53 171 77 142 61 166
91 104 129 -42 25 -839 374 -941 411 -60 23 -94 29 -150 28 -40 0 -79 -3 -87
-6z m-226 -1165 l231 -102 85 -1 85 0 237 103 c130 56 239 102 244 102 4 0 5
-76 2 -170 l-6 -170 43 25 c53 32 60 21 45 -68 -38 -239 -168 -489 -318 -612
-226 -187 -468 -177 -688 28 -91 85 -154 178 -206 305 -47 117 -88 268 -88
329 l0 44 44 -26 c24 -14 46 -22 49 -18 3 4 1 44 -3 88 -15 137 -12 245 7 245
3 0 109 -46 237 -102z"/>
<path d="M1095 5248 c-11 -6 -23 -16 -27 -22 -15 -22 -8 -66 14 -86 l22 -20
-27 -372 c-35 -469 -34 -488 6 -602 18 -49 37 -91 44 -93 13 -5 60 131 73 211
5 31 1 145 -11 300 -10 138 -22 321 -27 406 l-9 154 23 19 c33 26 32 69 -2 96
-30 24 -50 26 -79 9z"/>
<path d="M4207 4872 c-22 -24 -21 -55 1 -75 17 -16 17 -28 -6 -314 -12 -164
-21 -323 -18 -353 4 -58 44 -171 62 -177 11 -4 39 81 54 159 4 21 -1 151 -11
290 -23 318 -24 382 -4 398 33 28 4 90 -42 90 -11 0 -27 -8 -36 -18z"/>
<path d="M4446 3254 c-106 -29 -250 -95 -332 -152 -109 -76 -109 -58 6 -168
268 -258 411 -560 440 -929 6 -75 7 -165 2 -211 l-8 -81 706 -5 c759 -5 943 0
1075 31 267 64 404 241 405 523 1 403 -220 747 -593 923 -90 43 -199 77 -291
90 -44 7 -46 6 -46 -16 -1 -75 -91 -177 -205 -234 -115 -57 -226 -79 -395 -80
-246 0 -419 56 -539 176 -37 38 -70 102 -71 137 0 18 -5 22 -32 21 -18 0 -73
-11 -122 -25z"/>
<path d="M1500 3159 c-492 -103 -873 -437 -1014 -888 -43 -136 -59 -263 -53
-425 7 -225 50 -341 171 -462 120 -120 294 -188 541 -213 71 -7 535 -12 1295
-13 1117 -3 1191 -2 1290 16 293 51 461 156 550 341 52 107 70 204 70 367 0
217 -40 390 -134 575 -173 343 -483 583 -883 684 -157 40 -158 40 -172 -18
-41 -165 -231 -302 -496 -359 -419 -90 -903 46 -1024 288 -17 34 -31 76 -31
95 0 18 -3 33 -7 32 -5 0 -51 -9 -103 -20z"/>
</g>
</svg>
